<?xml version="1.0" encoding="utf-8"?>
<!-- Generator: Adobe Illustrator 22.0.0, SVG Export Plug-In . SVG Version: 6.00 Build 0)  -->
<svg version="1.1" id="Слой_1" xmlns="http://www.w3.org/2000/svg" xmlns:xlink="http://www.w3.org/1999/xlink" x="0px" y="0px"
	 viewBox="0 0 32 35" style="enable-background:new 0 0 32 35;" xml:space="preserve">
<style type="text/css">
	.st0{fill:none;stroke:#FFFFFF;}
	.st1{fill:#FFFFFF;}
</style>
<path class="st0" d="M11,3.5h1c0.8,0,1.5-0.7,1.5-1.5s0.7-1.5,1.5-1.5h2c0.8,0,1.5,0.7,1.5,1.5s0.7,1.5,1.5,1.5h1
	c0.8,0,1.5,0.7,1.5,1.5v3.5h-13V5C9.5,4.2,10.2,3.5,11,3.5z"/>
<path class="st0" d="M22,8.5h0.5V8V4.5h5v24.8c0,0,0,0.1-0.1,0.1c-0.1,0.1-0.3,0.3-0.5,0.6c-0.5,0.5-1.2,1.2-2.2,1.8
	c-1.9,1.3-4.8,2.7-8.7,2.7c-3.9,0-6.8-1.3-8.7-2.7c-1-0.7-1.7-1.3-2.2-1.8c-0.2-0.2-0.4-0.5-0.5-0.6c0,0-0.1-0.1-0.1-0.1V4.5h5V8
	v0.5H10H22z"/>
<path class="st0" d="M11,14l2,2l5-5"/>
<path class="st1" d="M16.6,11H16h-6H9v1v6v1h1h6h1v-1v-4.6l-1,1V18h-6v-6h5.6L16.6,11z"/>
<rect x="19" y="15" class="st1" width="4" height="1"/>
<rect x="19" y="18" class="st1" width="4" height="1"/>
<path class="st0" d="M11,24l2,2l5-5"/>
<path class="st1" d="M16.6,21H16h-6H9v1v6v1h1h6h1v-1v-4.6l-1,1V28h-6v-6h5.6L16.6,21z"/>
<rect x="19" y="25" class="st1" width="4" height="1"/>
<rect x="19" y="28" class="st1" width="4" height="1"/>
<path class="st0" d="M4.4,8.7l0.1-0.1V8.4V4.5h5V8v0.5H10h12h0.5V8V4.5h5v3.9v0.2l0.1,0.1c2.4,2.7,3.9,6.3,3.9,10.3
	c0,8.6-6.9,15.5-15.5,15.5C7.4,34.5,0.5,27.6,0.5,19C0.5,15.1,2,11.5,4.4,8.7z"/>
<circle class="st1" cx="16" cy="3" r="1"/>
</svg>
