<svg width="32" height="35" viewBox="0 0 32 35" fill="none" xmlns="http://www.w3.org/2000/svg">
<circle cx="16" cy="16" r="15.5" transform="translate(0 3)" fill="white" stroke="#298FC9"/>
<path fill-rule="evenodd" clip-rule="evenodd" d="M8 3H7C6.2597 3 5.6134 3.40222 5.26758 4H0V29.5C0 29.5 4 35 12 35C20 35 24 29.5 24 29.5V4H18.7324C18.3866 3.40222 17.7403 3 17 3H16C15.4477 3 15 2.55231 15 2C15 0.895447 14.1046 0 13 0H11C9.89545 0 9 0.895447 9 2C9 2.55231 8.55231 3 8 3Z" transform="translate(4)" fill="black"/>
<path fill-rule="evenodd" clip-rule="evenodd" d="M8 3H7C6.2597 3 5.6134 3.40222 5.26758 4H0V29.5C0 29.5 4 35 12 35C20 35 24 29.5 24 29.5V4H18.7324C18.3866 3.40222 17.7403 3 17 3H16C15.4477 3 15 2.55231 15 2C15 0.895447 14.1046 0 13 0H11C9.89545 0 9 0.895447 9 2C9 2.55231 8.55231 3 8 3Z" transform="translate(4)" fill="url(#paint0_linear)"/>
<path d="M0 3L2 5L7 0" transform="translate(11 11)" stroke="white"/>
<path fill-rule="evenodd" clip-rule="evenodd" d="M7.58582 0H7H1H0V1V7V8H1H7H8V7V2.41418L7 3.41418V7H1V1H6.58582L7.58582 0Z" transform="translate(9 11)" fill="white"/>
<rect width="4" height="1" transform="translate(19 15)" fill="white"/>
<rect width="4" height="1" transform="translate(19 18)" fill="white"/>
<path d="M0 3L2 5L7 0" transform="translate(11 21)" stroke="white"/>
<path fill-rule="evenodd" clip-rule="evenodd" d="M7.58582 0H7H1H0V1V7V8H1H7H8V7V2.41418L7 3.41418V7H1V1H6.58582L7.58582 0Z" transform="translate(9 21)" fill="white"/>
<rect width="4" height="1" transform="translate(19 25)" fill="white"/>
<rect width="4" height="1" transform="translate(19 28)" fill="white"/>
<circle cx="1" cy="1" r="1" transform="translate(15 2)" fill="white"/>
<defs>
<linearGradient id="paint0_linear" x2="1" gradientUnits="userSpaceOnUse" gradientTransform="translate(27.6 4.86111) scale(31.1999 28.1115) rotate(90)">
<stop stop-color="#2CAEDA"/>
<stop offset="0.9994" stop-color="#298FC9"/>
</linearGradient>
</defs>
</svg>
